<svg xmlns="http://www.w3.org/2000/svg" width="512" height="512" viewBox="0 0 512 512" version="1.1"><path d="M 384 100.965 C 384 101.496, 382.603 103.521, 380.896 105.465 L 377.793 109 356.146 109.003 C 333.380 109.006, 321.152 110.038, 310.766 112.835 C 305.632 114.218, 304.442 114.933, 304.176 116.793 C 303.613 120.744, 307.689 127.286, 319.631 141.598 C 333.133 157.779, 337.022 163.493, 341.171 173.243 C 344.392 180.813, 344.492 185.233, 341.566 190.855 C 338.706 196.352, 335.277 198.504, 329.469 198.448 C 325.150 198.406, 322.288 197.490, 314.801 193.755 C 305.112 188.920, 297.624 183.436, 273.861 163.774 C 252.245 145.889, 242.651 141, 229.170 141 C 223.558 141, 221.325 141.511, 217.155 143.750 C 209.227 148.007, 197.031 157.400, 179 173.137 C 152.352 196.394, 151.523 197, 146.359 197 C 141.153 197, 137.016 195.107, 134.088 191.385 C 132.493 189.357, 132 187.301, 132 182.679 C 132 168.451, 139.569 150.663, 153.457 132.250 C 158.124 126.063, 161.668 121, 161.332 121 C 160.997 121, 155.497 121.890, 149.111 122.977 C 130.276 126.185, 114.589 127.273, 110.685 125.642 C 107.127 124.155, 102 118.713, 102 116.423 C 102 114.236, 100.817 114.660, 94.416 119.142 C 46.924 152.395, 15.175 202.680, 7.482 256.831 C 4.963 274.561, 5.835 303.650, 9.392 320.533 C 24.025 389.989, 74.946 446.409, 150 476.325 C 218.841 503.764, 303.040 501.945, 372.160 471.526 C 445.968 439.043, 496.867 375.186, 505.034 304.825 C 506.614 291.214, 505.807 261.622, 503.539 250 C 491.642 189.030, 452.385 137.341, 393.128 104.622 C 383.957 99.558, 384 99.576, 384 100.965" stroke="none" fill="#c11c1b" fill-rule="evenodd"/><path d="M 245.500 17.056 C 243.850 17.537, 240.926 19.246, 239.003 20.854 L 235.506 23.776 235.388 34.638 C 235.256 46.770, 233.117 54.932, 227.941 63.058 C 222.035 72.331, 220.589 72.920, 197.493 75.469 C 173.355 78.132, 158.280 83.287, 127.500 99.404 C 110.771 108.164, 107.335 111.107, 109.592 114.741 C 111.884 118.432, 115.008 119.008, 127.085 117.967 C 133.363 117.425, 144.575 115.893, 152 114.562 C 168.862 111.539, 180.173 109.840, 180.600 110.267 C 180.780 110.446, 175.520 117.322, 168.911 125.547 C 154.688 143.246, 151.073 148.516, 146.493 158.228 C 142.372 166.966, 140 175.718, 140 182.187 C 140 186.096, 140.426 187.233, 142.365 188.504 C 145.688 190.681, 147.881 189.572, 158.500 180.349 C 186.212 156.277, 206.993 139.628, 213 136.685 C 219.071 133.710, 220.193 133.502, 230 133.532 C 238.552 133.558, 241.567 133.988, 246.250 135.854 C 254.290 139.056, 267.333 147.924, 282 160.161 C 299.805 175.015, 308.112 181.179, 317.379 186.413 C 327.025 191.861, 330.843 192.287, 334.006 188.266 C 336.715 184.822, 336.262 182.175, 331.136 171.500 C 326.939 162.762, 322.818 157.124, 310.208 142.872 C 305.647 137.717, 300.769 131.163, 299.368 128.307 C 296.326 122.104, 295.165 112.351, 297.163 109.776 C 298.951 107.471, 314.930 103.394, 328 101.909 C 334.751 101.142, 344.819 100.943, 356.199 101.351 C 373.680 101.977, 373.916 101.958, 375.449 99.770 C 379.817 93.533, 373.888 87.672, 358.055 82.578 C 337.020 75.810, 314.358 71.954, 286.750 70.445 L 275 69.803 275 60.808 C 275 51.774, 272.112 34.597, 269.570 28.513 C 265.760 19.396, 255.013 14.280, 245.500 17.056" stroke="none" fill="#1bc12b" fill-rule="evenodd"/></svg>